<?xml version="1.0" encoding="UTF-8"?>
<svg id="Camada_1" data-name="Camada 1" xmlns="http://www.w3.org/2000/svg" viewBox="0 0 50 50">
  <defs>
    <style>
      .cls-1 {
        fill: #9d9d9d;
      }
    </style>
  </defs>
  <g>
    <path class="cls-1" d="M45.04,38.91h-7.99v-4.36c0-.09.03-.25.3-.27.15-.02.34-.04.38-.4.06-.56.07-2.32-.01-2.83-.02-.18-.15-.3-.34-.34l-21.3-.02c-.08-.02-.35.17-.39.26v3.89s-1.35-.13-1.35-.13l-1.22-3.79v-9.37c.05-.17.2-.21.3-.24.18-.05.3-.1.37-.3l.7-5.58c-.01-.32-.2-.38-.39-.44-.09-.02-.25-.07-.29-.23-.03-.18-.02-.42-.01-.72.02-.52.06-1.52-.16-1.75l-2.57-.02v-1.83c0-.23-.85-.23-.85,0v1.83h-2.53c-.26.25-.22,1.25-.2,1.78.01.29.02.53,0,.67-.05.2-.21.25-.31.27-.18.06-.37.12-.38.48l.7,5.58c.05.16.19.21.37.26.1.03.25.07.29.24v.07s-.01,9.46-.01,9.46l-1.19,3.55c-.19.23-.56.21-1.03.19-.46-.03-1.03-.06-1.13.19.01.58-.02,1.22-.05,1.82-.04.87-.08,1.76,0,2.52.04.28.18.41.46.41h39.64c.24-.03.37-.16.37-.4s-.15-.44-.2-.45ZM8.36,13.11h4.62v1.89h-4.62v-1.89ZM7.72,15.84h5.89l-.58,4.62h-4.68s-.64-4.62-.64-4.62ZM9.04,31.3v-9.99h3.26v9.99l1.22,3.51h-5.69l1.22-3.51ZM15.71,38.91h-1.94l.05-.3c.09-.58-.06-.9-.24-1.03-.12-.07-.26-.07-.38,0-.18.13-.34.45-.23,1.03l.05.3h-1.99l.05-.3c.1-.58-.05-.9-.24-1.03-.12-.07-.25-.07-.38,0-.18.13-.34.45-.23,1.03l.05.3h-1.99l.05-.3c.1-.58-.05-.9-.23-1.03-.13-.07-.26-.07-.38,0-.19.13-.35.45-.24,1.03l.05.3h-1.94v-3.25h10.09v3.25ZM19.81,38.91h-3.26v-1.89h3.26v1.89ZM19.81,36.18h-3.26v-1.9h3.26v1.9ZM23.91,38.91h-3.26v-1.89h3.26v1.89ZM23.91,36.18h-3.26v-1.9h3.26v1.9ZM28.01,38.91h-3.26v-1.89h3.26v1.89ZM28.01,36.18h-3.26v-1.9h3.26v1.9ZM32.11,38.91h-3.26v-1.89h3.26v1.89ZM32.11,36.18h-3.26v-1.9h3.26v1.9ZM36.21,38.91h-3.26v-1.89h3.26v1.89ZM36.21,36.18h-3.26v-1.9h3.26v1.9ZM36.89,33.45h-20.34v-1.9h20.34v1.9Z"/>
    <path class="cls-1" d="M41.86,18.04l-8.12,3.91s-.03,0-.04-.01c-.06-.01-.16-.03-.19-.05-.08-.05-.14-.16-.16-.27-.01-.1,0-.21.05-.29l7.9-3.9c.21-.08.41-.04.53.12.08.1.14.29.02.5Z"/>
    <path class="cls-1" d="M22.32,24.62c-.43.32-3.62,1.87-4.14,2.02-.31.09-.52-.03-.6-.19-.08-.16-.06-.39.09-.51l4.29-2.06c.29-.07.48.07.55.21.08.18.02.38-.19.53Z"/>
    <path class="cls-1" d="M26.89,26.61c-.37.28-3.58,1.84-4.14,2.02-.31.09-.52-.04-.6-.19-.08-.16-.06-.39.1-.52l4.28-2.06c.3-.06.48.07.55.22.08.18.02.38-.19.53Z"/>
    <path class="cls-1" d="M31.35,25.72c-.2.16-1.79.9-2,.94-.23.04-.41-.07-.48-.21-.03-.05-.12-.24.02-.43.21-.17,1.89-1.01,2.13-1.07.26-.04.42.09.48.24.06.15.06.37-.15.52Z"/>
    <path class="cls-1" d="M10.93,19.18c-.26.19-.39.1-.43.08-.22-.15-.36-.64-.28-1.07.02-.12.09-.41.3-.45.05-.01.1-.02.15-.02.17,0,.28.09.37.27.2.43.05,1.07-.1,1.18Z"/>
  </g>
  <g id="_4jGjxP" data-name="4jGjxP">
    <path class="cls-1" d="M40.08,14.22c-2-2.34-5.65-1.11-7.5-.01l-.05.02-4.1-.82c-.28.15-.61.3-.92.44-.49.22-1,.44-1.37.71-.25.17-.21.33-.15.44.09.17.89.58,1.32.8.67.34.76.39.76.52v.09l-4.09,2.05-.51.17-.06-.03c-.38-.21-.75-.44-1.12-.66-.46-.28-.95-.58-1.42-.84-.07-.03-.13-.07-.2-.11-.23-.14-.46-.28-.67-.21-.18.06-1.99,1-2.13,1.11-.23.2-.13.42-.01.56.32.39.81.78,1.29,1.16.43.35.87.7,1.2,1.06l.03.06c.54,1.91,1.8,1.91,3.66,1.69,1.5-.18,2.97-.56,4.35-.95l.3-.08-1.51,3.26c-.05.12-.02.3.07.38.13.12.26.1.48.03.5-.16,1.06-.48,1.61-.79.44-.25.9-.51,1.33-.69l2.1-3.79.04-.02c.4-.22.81-.43,1.24-.66,2.12-1.11,4.31-2.26,6.04-3.72.27-.22.38-.37.39-.49.01-.15-.15-.36-.4-.66ZM27.27,15.04s-.05-.09-.05-.14c0-.07.03-.13.09-.18.06-.06,1.13-.62,1.25-.63h.05s2.91.63,2.91.63l-2.48,1.22-1.77-.9ZM19.68,19h-.03c-.16,0-.3-.15-.44-.3-.09-.09-.22-.23-.28-.24l-.17-.02.1-.34,1.29-.62,1.17.6-1.65.91ZM30.26,22.98l-2,.99,2.18-4.79.03-.02c.46-.3.97-.54,1.46-.77.22-.1.44-.2.66-.31l.4-.2-2.74,5.1ZM39.54,14.94c-.95.67-1.86,1.31-2.82,1.9l-.36.23c-.76.48-1.93,1.21-2.5,1.4-.07.02-.17.02-.22-.04l-.06-.06.02-.1.08-.14c.19-.32.59-.99.44-1.21-.06-.09-.23-.11-.5-.08l-3.65,1.81c-.17.23-.29.56-.42.88-.13.32-.24.63-.4.86-.11.17-.56.34-1.66.63l-.11.03c-1.48.4-2.78.65-3.95.75h-.13c-.21.03-.42.05-.64.05-.56,0-1.1-.14-1.41-.79-.05-.11-.09-.24-.11-.36-.03-.12-.05-.23-.1-.31-.05-.07-.3-.29-.45-.42-.27-.23-.32-.27-.32-.36v-.09s1.74-.94,1.74-.94l.06.02c.22.09.44.23.64.36.35.23.68.45,1.04.39l10.94-5.39c.92-.28,1.88-.5,2.79-.32l.35.07-1.86,1.16c-.14.19-.03.34,0,.39.08.1.25.19.44.09l2.29-1.31h.01c.21,0,.77.51.81.58.14.16.07.27.01.32Z"/>
  </g>
</svg>