<?xml version="1.0" encoding="UTF-8"?>
<svg id="Camada_1" data-name="Camada 1" xmlns="http://www.w3.org/2000/svg" viewBox="0 0 50 50">
  <defs>
    <style>
      .cls-1 {
        fill: #9d9d9d;
      }
    </style>
  </defs>
  <path class="cls-1" d="M32.23,24.82c-.62-2.79-2.11-5.33-4.32-7.32l-.18-.17,2.24-2.3c.17-.31.05-.63-.13-.81s-.49-.28-.84-.08l-2.4,2.32-.17-.11c-2.13-1.4-4.48-2.19-6.79-2.27h-.23v-1.57h2.5c.17,0,.48-.31.52-.52.09-.52.07-2.43,0-2.99-.04-.37-.29-.56-.74-.6-1.01-.08-2.09-.04-3.13,0-.96.04-1.96.07-2.91,0-.26.04-.57.23-.61.6-.07.62-.08,2.34,0,2.91,0,.08.12.33.16.39.06.05.33.2.4.22h2.46v1.57h-.22c-6.42.32-11.91,5.41-12.78,11.86-.95,7.05,3.67,13.79,10.55,15.36,4.67,1.07,9.48-.3,12.86-3.66,3.38-3.35,4.78-8.15,3.76-12.81ZM16.39,11.17v-1.43h4.7v1.43h-4.7ZM18.74,40.32c-6.87,0-12.47-5.6-12.47-12.48s5.6-12.47,12.47-12.47,12.47,5.6,12.47,12.47-5.59,12.48-12.47,12.48Z"/>
  <path class="cls-1" d="M41.6,26.34l3.35-3.83c.29-.48.07-.72-.42-1.2l-.1-.11c-1.09-1.07-2.26-2.11-3.37-3.11-1.09-.97-2.21-1.98-3.27-3.01-.25-.22-.68-.19-.91.06-.02.03-.12.18-.16.26v3.51l-.21.21h-4.52s-.16.09-.18.12c-.21.15-.31.39-.25.65.04.2.19.46.51.53h5.53c.11-.03.4-.29.44-.41v-2.83s5.4,5,5.4,5l-2.86,3.19-3.19-3.22c-.31-.17-.57-.16-.82.07-.04.04-.15.17-.19.24v3.73h-1.95c-.07.03-.21.1-.25.13-.26.17-.32.46-.28.68.03.2.17.45.44.52.29.08,2.37.08,2.79.02.2-.02.55-.31.56-.42v-2.74l5.76,5.84-5.76,6.31v-2.72c-.04-.07-.11-.19-.14-.23-.13-.17-.33-.22-.48-.24-.91-.12-2.41-.02-3.39.04h-.17s-.34,0-.34,0c-.32,0-.5-.02-.69.23-.2.25-.21.54-.02.81.07.09.25.23.32.25h3.41l.18.23.05,3.68c.06.16.17.28.32.35.18.08.39.08.57,0,.15-.06.4-.33.54-.5l.13-.14c1.16-1.22,2.29-2.52,3.39-3.76,1.15-1.3,2.33-2.65,3.56-3.93.17-.23.19-.6.03-.84l-3.35-3.45Z"/>
  <path class="cls-1" d="M16.97,18.2c-3.24.58-5.86,2.65-7.2,5.66-.47,1.05-.91,2.73-.87,3.91.02.27.13.51.3.63.18.12.38.15.62.08.41-.12.45-.54.46-1.19,0-.17,0-.33.03-.48.37-3.1,2.44-5.74,5.41-6.87,2.97-1.15,6.17-.6,8.54,1.47,2.62,2.28,3.6,5.75,2.53,9.03-1.07,3.31-3.9,5.55-7.4,5.87-.14.02-.27,0-.4,0-.06,0-.12,0-.17,0-.18,0-.33.03-.5.16-.27.19-.3.5-.25.7.06.21.24.46.57.5,1.31.15,3.45-.48,4.69-1.14,2.76-1.48,4.62-4.09,5.09-7.2.47-3.09-.52-6.13-2.7-8.35-2.32-2.35-5.52-3.36-8.77-2.77Z"/>
  <path class="cls-1" d="M22.57,32.62c.33.26.69.17.88,0,.18-.16.33-.48.13-.86l-4.16-4.2-.02-5.88c-.07-.33-.39-.56-.77-.52-.28.04-.54.33-.57.63.07.91.03,1.92,0,2.88-.04,1.05-.08,2.13,0,3.12.02.22.08.38.17.49l4.35,4.34Z"/>
</svg>