<?xml version="1.0" encoding="UTF-8"?>
<svg id="Camada_1" data-name="Camada 1" xmlns="http://www.w3.org/2000/svg" viewBox="0 0 50 50">
  <defs>
    <style>
      .cls-1 {
        fill: #9d9d9d;
      }
    </style>
  </defs>
  <g id="oPNOb5">
    <g>
      <path class="cls-1" d="M28.88,6.22c1.1.29,1.97,1.09,2.1,2.26.1.81.08,1.86-.2,2.62v4.66h3.19c.95,0,2.31,1.48,2.31,2.46v20.95c-.18,1.09-.9,1.86-1.87,2.32.06,1.03-.22,2.11-1.4,2.27-1.55.2-2.65-.44-2.45-2.12h-11.14c.2,1.68-.9,2.32-2.45,2.12-1.18-.15-1.46-1.24-1.4-2.27-.97-.46-1.69-1.23-1.86-2.32v-20.95c-.02-.97,1.37-2.46,2.3-2.46h3.19v-4.66c-.28-.76-.3-1.81-.2-2.62.14-1.19.99-1.95,2.1-2.26h7.77ZM29.91,10.11v-1.5s-.12-.35-.16-.43c-.25-.61-.71-.81-1.34-.86-2.26-.17-4.74.13-7.03.01-.29.03-.65.18-.85.39-.11.11-.44.7-.44.81v1.58h1.25c-.03-.73-.07-1.46.84-1.54,1.84-.18,3.98.13,5.85.02.72.19.66.92.64,1.52h1.25ZM22.22,15.75h5.57v-4.66c-.26-.45-.2-.93-.26-1.43h-5.09c.03.53.02.95-.22,1.43v4.66ZM21.12,11.21h-.81v4.43c.09.14.25.11.4.11.09,0,.19,0,.28-.02l.12-.1v-4.43ZM29.69,11.21h-.81v4.43c.09.14.25.11.4.11.09,0,.19,0,.28-.02l.12-.1v-4.43ZM16.19,16.87c-.74.19-1.26.72-1.37,1.48.05,6.99-.09,13.99.07,20.96.25.68.92,1.16,1.65,1.21h16.94c.84-.05,1.65-.71,1.72-1.58v-20.53c-.09-.84-.72-1.5-1.58-1.58l-17.43.02ZM18.33,41.62h-1.61c-.1.95.16,1.12,1.07,1.03.68-.06.54-.47.55-1.03ZM33.28,41.62h-1.61c-.1.95.16,1.12,1.07,1.03.68-.06.54-.47.55-1.03Z"/>
      <path class="cls-1" d="M24.54,19.36c1.13-.19,2.11.41,2.29,1.56v16.27c-.48,2.06-3.37,1.95-3.67-.14v-16.2c.04-.62.78-1.38,1.38-1.48ZM25.56,37.35c.07-.07.11-.16.15-.25l-.04-16.27c-.3-.54-1.06-.54-1.35,0l-.06,16.14c.1.6.88.8,1.3.37Z"/>
      <path class="cls-1" d="M29.42,25.52c.34-.34.92-.11.93.38l.02,11.05c.26.89,1.44.82,1.53-.13v-15.76c-.12-.72-1.02-.87-1.4-.3-.35.53-.02,2.03-.15,2.71-.1.54-.96.55-1.08-.01-.08-.38-.06-1.96-.01-2.4.23-2.24,3.36-2.34,3.73-.14v16.12c-.42,2.22-3.39,2.15-3.72-.08v-10.92c-.01-.15.06-.43.16-.53Z"/>
      <path class="cls-1" d="M17.95,34.02c.31.29.11,2.26.16,2.81.09.98,1.34,1.01,1.54.07v-15.68c-.08-.93-1.33-1.11-1.53-.14v10.77c-.08.62-.71.77-1.07.25l-.04-11.1c.34-2.28,3.52-2.22,3.74.15v15.76c-.23,2.36-3.45,2.27-3.73.21-.07-.5-.08-2.28,0-2.77.07-.42.65-.58.93-.32Z"/>
    </g>
  </g>
</svg>