<?xml version="1.0" encoding="UTF-8"?>
<svg id="Camada_1" data-name="Camada 1" xmlns="http://www.w3.org/2000/svg" viewBox="0 0 50 50">
  <defs>
    <style>
      .cls-1 {
        fill: #9d9d9d;
      }
    </style>
  </defs>
  <g id="ci2PwJ">
    <path class="cls-1" d="M25.6,12.84v.8h12.59s.19.08.22.1c.32.21.36.66.1.94-.05.05-.31.2-.36.2h-1.58l4.57,9.28c.51.08,1.72-.24,1.87.48.09.45-.09,1.47-.2,1.94-.91,3.73-4.6,6.15-8.4,5.54-2.9-.46-5.33-2.69-6.02-5.54-.11-.46-.29-1.5-.2-1.94.15-.72,1.36-.4,1.87-.48l4.57-9.28h-9v16.09h.86c.22,0,.62.27.62.5v3.42c.29,0,.57-.03.78.2l1.35,2.55c.12.07,1.42-.04,1.72.02.19.03.47.31.47.49v2.26h4.74c.06,0,.25.13.29.19.3.34.16.82-.24.98l-22.26.03c-.48-.08-.71-.63-.37-1.02.05-.05.24-.19.29-.19h4.74v-2.26c0-.18.28-.46.47-.49.28-.05,1.63.04,1.73-.02l1.35-2.55c.21-.24.49-.21.78-.2v-3.42c0-.21.39-.5.58-.5h.9V14.88h-9l4.57,9.28c1.05.1,1.95-.39,1.88,1.07-.13,2.73-1.95,5.26-4.42,6.35-4.21,1.85-9.14-.55-10.22-5-.11-.47-.29-1.49-.2-1.94.15-.72,1.36-.4,1.87-.48l4.57-9.28h-1.58c-.05,0-.31-.14-.36-.2-.26-.28-.22-.73.1-.94.03-.02.2-.1.22-.1h12.59v-.8c-1.44-.39-2.11-2.03-1.35-3.33.86-1.48,3.05-1.48,3.91,0,.75,1.31.09,2.94-1.35,3.33ZM26.05,10.65c0-.58-.47-1.05-1.05-1.05s-1.05.47-1.05,1.05.47,1.05,1.05,1.05,1.05-.47,1.05-1.05ZM18.6,24.16l-4.18-8.52-4.18,8.52h8.36ZM39.77,24.16l-4.18-8.52-4.18,8.52h8.36ZM20.6,25.4h-12.37c.52,5.1,6.77,7.45,10.51,3.84,1.03-1,1.7-2.41,1.86-3.84ZM41.77,25.4h-12.37c.41,3.73,3.92,6.26,7.6,5.42,2.55-.58,4.5-2.83,4.76-5.42ZM25.88,32.21h-1.76v2.68h1.76v-2.68ZM30.16,38.85h-1.5c-.07,0-.28-.19-.33-.27-.47-.68-.8-1.67-1.25-2.39l-.13-.11h-3.91s-.83,1.56-.83,1.56h2.22s.17.1.2.12c.31.24.31.72,0,.96-.03.02-.19.12-.2.12h-4.58v1.56h10.33v-1.56Z"/>
  </g>
</svg>