<?xml version="1.0" encoding="UTF-8"?>
<svg id="Camada_1" data-name="Camada 1" xmlns="http://www.w3.org/2000/svg" viewBox="0 0 50 50">
  <defs>
    <style>
      .cls-1 {
        fill: #9d9d9d;
      }
    </style>
  </defs>
  <g id="_4jGjxP" data-name="4jGjxP">
    <path class="cls-1" d="M45.66,16.03c-3.77-4.4-10.64-2.09-14.12-.02l-.09.04-7.72-1.55c-.54.29-1.15.56-1.74.83-.92.42-1.88.84-2.59,1.34-.46.32-.39.62-.28.84.16.32,1.67,1.08,2.49,1.5,1.27.63,1.43.73,1.43.98v.16l-7.69,3.85-.97.31-.11-.06c-.71-.4-1.41-.83-2.1-1.24-.87-.54-1.78-1.08-2.68-1.59-.13-.06-.25-.14-.38-.21-.44-.27-.86-.53-1.27-.4-.34.11-3.76,1.88-4.01,2.08-.43.38-.25.78-.02,1.06.61.73,1.53,1.47,2.44,2.18.8.65,1.64,1.32,2.26,2l.06.11c1.01,3.59,3.39,3.59,6.9,3.18,2.83-.33,5.59-1.06,8.19-1.78l.56-.15-2.84,6.14c-.09.23-.03.57.13.71.24.23.48.19.9.06.94-.3,2-.91,3.03-1.49.84-.47,1.7-.97,2.5-1.3l3.96-7.14.08-.04c.75-.41,1.53-.82,2.33-1.23,3.99-2.09,8.11-4.25,11.37-7,.5-.42.72-.7.74-.92.02-.29-.29-.68-.76-1.23ZM21.52,17.57c-.06-.08-.1-.16-.09-.26,0-.13.06-.25.17-.34.12-.11,2.12-1.16,2.36-1.18h.09s5.47,1.18,5.47,1.18l-4.68,2.3-3.33-1.7ZM7.23,25.03h-.06c-.3,0-.56-.28-.83-.57-.16-.17-.41-.44-.53-.45l-.32-.03.19-.64,2.44-1.16,2.21,1.14-3.1,1.72ZM27.16,32.52l-3.77,1.86,4.11-9.01.06-.04c.86-.57,1.82-1.02,2.76-1.45.42-.18.83-.38,1.23-.58l.76-.38-5.16,9.6ZM44.63,17.37c-1.78,1.27-3.51,2.47-5.3,3.57l-.69.43c-1.44.91-3.63,2.29-4.71,2.63-.13.04-.31.04-.42-.08l-.12-.12.04-.19.15-.27c.36-.61,1.11-1.87.83-2.29-.11-.16-.44-.21-.93-.15l-6.88,3.4c-.31.43-.55,1.06-.78,1.66-.24.61-.45,1.19-.75,1.62-.21.31-1.06.63-3.13,1.19l-.21.05c-2.79.76-5.23,1.22-7.44,1.42l-.25.02c-.4.03-.79.08-1.2.08-1.05,0-2.07-.26-2.65-1.49-.1-.21-.16-.45-.21-.69-.05-.23-.1-.44-.18-.58-.09-.14-.56-.55-.85-.79-.52-.43-.61-.5-.61-.68v-.16s3.27-1.77,3.27-1.77l.11.04c.42.16.83.43,1.21.69.67.44,1.29.85,1.95.74l20.6-10.15c1.74-.53,3.54-.94,5.26-.61l.67.13-3.5,2.19c-.26.35-.06.64,0,.73.15.19.46.35.84.17l4.31-2.46h.02c.39,0,1.45.97,1.53,1.09.27.3.13.52.02.61Z"/>
  </g>
</svg>