<?xml version="1.0" encoding="UTF-8"?>
<svg id="Camada_1" data-name="Camada 1" xmlns="http://www.w3.org/2000/svg" viewBox="0 0 50 50">
  <defs>
    <style>
      .cls-1 {
        fill: #9d9d9d;
      }
    </style>
  </defs>
  <path class="cls-1" d="M36.35,29.12l-3.92-.72-2.84-.99-3.52,4.17-2.28,1.44-.43-.26-.19-.16v.04l-2.42-1.44v-.08l-1.1.85v.05l-2.24,1.74-3.64-.49-.05.37h0s0,0,0,0l-.05.37h.05v5.13c.18,1.09.9,1.86,1.86,2.31-.06,1.03.22,2.12,1.4,2.27,1.56.2,2.65-.44,2.45-2.12h11.14c-.2,1.68.9,2.32,2.45,2.12,1.18-.15,1.46-1.24,1.4-2.27.97-.45,1.68-1.23,1.86-2.31v-9.67h0l.07-.37ZM31.89,29.01v7.81c-.08.96-1.27,1.02-1.52.13l-.02-8.48,1.54.54ZM25.71,37.1c-.04.08-.08.18-.15.25-.42.42-1.2.22-1.3-.38v-3.36s1.44-.9,1.44-.9v4.39ZM18.05,34.23l1.6-1.25v3.91c-.21.95-1.45.92-1.54-.07-.04-.47.1-1.99-.06-2.59ZM17.79,42.65c-.91.09-1.17-.08-1.07-1.03h1.61c-.01.56.14.97-.54,1.03ZM32.74,42.65c-.91.09-1.17-.08-1.07-1.03h1.61c0,.56.14.97-.54,1.03ZM33.47,40.52h-16.94c-.72-.04-1.4-.52-1.65-1.2-.04-1.72-.06-3.42-.07-5.14l2.19.29c-.06.62-.05,2.17.02,2.63.28,2.05,3.5,2.14,3.73-.22v-4.76l.03-.02,2.39,1.42v3.51c.29,2.09,3.19,2.2,3.66.14v-5.36l2.42-2.85v7.99c.34,2.23,3.31,2.3,3.74.08v-7.78s2.2.41,2.2.41v9.28c-.08.86-.88,1.53-1.72,1.57Z"/>
  <path class="cls-1" d="M13.79,29.91l.89-.17.11.05s0-.05,0-.07l3.02-.59,2.96-2.26,3.09,1.84,2.9-3.08,3.14-1.57,2.49.74,3.59.7.3.06v-7.35c0-.98-1.36-2.46-2.31-2.46h-3.19v-4.66c.28-.75.3-1.81.2-2.61-.14-1.17-1-1.97-2.1-2.26h-7.77c-1.12.3-1.97,1.07-2.11,2.26-.09.8-.08,1.86.2,2.61v4.66h-3.19c-.93,0-2.32,1.49-2.31,2.46v10.95s-.06.01-.06.01l.14.74ZM19.65,26.79l-1.54,1.2v-6.92c.21-.97,1.46-.79,1.54.14v5.58ZM24.29,27.16l.03-6.33c.3-.54,1.06-.54,1.36,0v4.87s-1.39,1.47-1.39,1.47ZM30.5,20.77c.37-.57,1.27-.42,1.39.3v2.79l-1.53-.46c.1-.71-.21-2.12.14-2.63ZM20.09,8.53c0-.11.33-.7.44-.81.2-.21.56-.36.85-.39,2.29.12,4.77-.18,7.03,0,.63.05,1.09.24,1.35.85.03.08.15.4.15.43v1.51h-1.24c.02-.61.07-1.33-.64-1.53-1.88.11-4.01-.19-5.85-.02-.92.09-.88.81-.84,1.55h-1.25v-1.58ZM29.69,11.21v4.43l-.12.1c-.09.02-.19.01-.28.01-.15,0-.31.03-.4-.11v-4.43h.8ZM22.44,9.67h5.08c.07.49.01.97.27,1.42v4.66h-5.57v-4.66c.24-.47.24-.9.22-1.42ZM21.12,11.21v4.43l-.13.1c-.09.02-.18.01-.28.01-.15,0-.31.03-.4-.11v-4.43h.81ZM14.81,18.35c.12-.76.64-1.29,1.38-1.48l17.43-.02c.85.07,1.48.73,1.57,1.57v6.15l-2.21-.43v-3.21c-.37-2.2-3.5-2.11-3.73.13-.04.44-.07,2.03.02,2.41,0,.02.02.03.02.05l-2.42,1.21-.03-.11v-3.71c-.19-1.14-1.16-1.74-2.3-1.55-.59.1-1.33.87-1.37,1.48v6.58l-2.42-1.44v-4.84c-.22-2.37-3.4-2.43-3.74-.15l.03,7.52-2.24.44c.01-3.53.03-7.06,0-10.6Z"/>
</svg>