<?xml version="1.0" encoding="UTF-8"?>
<svg id="Camada_1" data-name="Camada 1" xmlns="http://www.w3.org/2000/svg" viewBox="0 0 50 50">
  <defs>
    <style>
      .cls-1 {
        fill: #9d9d9d;
      }
    </style>
  </defs>
  <g id="gHkSJe">
    <g>
      <path class="cls-1" d="M43.97,31.83v8.81c-.15.38-.47.79-.91.86-.67.11-3.17.09-3.88,0s-.88-.51-1.13-1.12l-4.71,1.32-2.32.4c-.65-.04-1.35.05-1.99,0-1.73-.14-3.83-.86-5.44-1.51-2.07-.83-7.73-3.38-8.65-5.33-.86-1.81.73-3.47,2.59-3.02l5.15,2.62c.86-2.48,4.21-1.26,6.21-1.56,2.65-2.13,6.09-1.92,9.24-1.29.07-.52.45-.93.97-1.02.73-.12,2.83-.09,3.61-.02.66.06.92.33,1.25.87ZM42.85,32.17h-3.54v8.2h3.54v-8.2ZM38.09,33.22c-2.34-.51-5.78-.92-7.84.56-.28.2-.56.66-.92.72-1.25.23-3.22-.13-4.58,0s-1.26,1.63-.09,1.73c1.7.16,3.62-.14,5.34.01.76.26.63,1.1-.15,1.19-1.17.14-3.9.1-5.1,0-1.01-.09-1.49-.53-2.08-1.29l-5.62-2.84c-.9-.02-1.43.6-1.02,1.45.69,1.4,5.11,3.48,6.64,4.16s3.3,1.42,4.98,1.76c3.7.74,6.95-.52,10.44-1.52v-5.94Z"/>
      <path class="cls-1" d="M11.51,7.57c.57.31.8.67.92,1.3,3.84.61,8.02.42,11.42,2.55,2.46,1.54,5.19,5.08,6.5,7.66.06.13.51.87.21.83-.18-.02-1.22-.27-1.3-.34-.94-1.87-2.2-3.57-3.63-5.09s-2.86-2.59-4.99-3.22c-2.66-.78-5.53-.82-8.27-1.19v5.14c1.66,1.94,3.47,3.81,5.73,5.07.66.37,1.39.62,2.05.98,1.38.75,2.55,1.84,3.85,2.71l.2-.12c-1.08-2.32-4.15-3.72-4.99-6.15-.69-2.01.77-2.95,2.64-2.47,2.19.57,4.22,2.54,5.54,4.3l-1.24.29c-1.14-1.38-2.58-2.77-4.32-3.35-.51-.17-1-.37-1.49-.06-.6.6.87,2.33,1.27,2.79,1.03,1.16,4.04,3.35,3.69,5.07-.18.9-1.3.99-1.99.65-.98-.48-2.21-1.72-3.26-2.35-.85-.51-1.78-.84-2.64-1.33-1.69-.96-3.52-2.53-4.82-3.98-.06-.07-.12-.16-.13-.26l-.47.78c-.19.19-.42.31-.69.34-.71.09-3.12.1-3.8,0-.48-.07-.76-.49-1-.86v-8.81c.22-.42.42-.67.86-.86h4.14ZM11.16,8.69h-3.54v8.29h3.54v-8.29Z"/>
      <path class="cls-1" d="M28.58,23.22c.32.3.14,1.31.19,1.36.75-.04,1.53.43,1.69,1.2.13.62-.11.98-.77.85-.45-.09-.24-.64-.55-.83-.28-.17-1.75-.16-2.01.03-.3.22-.34,1.38.21,1.59.97.36,2.83-.41,3.13,1.36.24,1.4-.1,2.69-1.7,2.79.09.84-.64.56-1.21.6v-.6c-.61-.01-1.22-.32-1.54-.84-.29-.46-.35-1.21.31-1.31.74-.12.49.78.95.92.18.05,1.5.06,1.71.02.52-.1.51-1.34.21-1.59-.46-.4-2.01.24-2.9-.59-.61-.57-.65-2.29-.19-2.93.31-.43.92-.72,1.45-.66.04-.37-.13-1.07.18-1.34.19-.17.66-.2.84-.02Z"/>
      <path class="cls-1" d="M35.15,30.35l-1.28.02c1.67-4.14-1.54-8.68-6.01-8.46-.62.03-2.42.73-2.18-.45.09-.44,1.1-.62,1.51-.66,5.49-.55,9.48,4.28,7.96,9.56Z"/>
      <path class="cls-1" d="M23.68,32.35l-1.04.48c-1.45-1.6-2.07-3.91-1.7-6.03.09-.53.39-1.93,1.19-1.32.46.35-.04,1.34-.09,1.9-.1,1.23.12,2.4.65,3.5l1,1.46Z"/>
    </g>
  </g>
</svg>