<?xml version="1.0" encoding="UTF-8"?>
<svg id="Camada_1" data-name="Camada 1" xmlns="http://www.w3.org/2000/svg" viewBox="0 0 50 50">
  <defs>
    <style>
      .cls-1 {
        fill: #9d9d9d;
      }
    </style>
  </defs>
  <g id="zVzuq0">
    <g>
      <path class="cls-1" d="M28.17,22.84l.47-.31c1.47-.97,2.58-2.26,3.16-3.72.89-2.18.75-4.6-.37-6.65-1.14-2.07-3.13-3.51-5.46-3.92l-.91-.12h-.9c-3.01.18-5.76,2.22-6.82,5.09-1.26,3.45.12,7.36,3.29,9.3l.45.28-.76.31c-.61.25-1.25.5-1.84.82-3.77,2.03-6.38,5.92-6.79,10.14-.17,1.66-.05,2.66,1.02,3.86,2.42,2.71,7.51,3.83,11.15,3.95.27.01.53,0,.8,0,.25,0,.49-.01.74,0l.4-.03c-.36-.21-.69-.43-1.02-.68-.05-.05-.15-.14-.24-.22-.1-.09-.26-.26-.32-.28-.1-.05-.31-.04-.5-.03-.12,0-.22.01-.33,0-3.15-.19-7.3-1.12-9.49-3.16-1.03-.96-1.15-1.73-1.06-2.98.29-3.68,2.23-6.95,5.34-8.97,3.12-2.03,6.91-2.49,10.41-1.25.11.03.27.11.45.19s.49.22.57.24c.07.01.3-.02.46-.05.17-.02.32-.04.44-.04.45-.02,1.04.03,1.61.12-1.06-.74-2.21-1.33-3.42-1.7l-.53-.17ZM18.11,15.87c0-3.59,2.92-6.52,6.52-6.52s6.52,2.93,6.52,6.52-2.93,6.52-6.52,6.52-6.52-2.93-6.52-6.52Z"/>
      <path class="cls-1" d="M30.62,26.2c-4.28,0-7.75,3.47-7.75,7.75s3.47,7.75,7.75,7.75,7.75-3.47,7.75-7.75-3.47-7.75-7.75-7.75ZM30.62,40.46c-3.6,0-6.53-2.93-6.53-6.52s2.93-6.52,6.53-6.52,6.52,2.92,6.52,6.52-2.93,6.52-6.52,6.52Z"/>
      <polygon class="cls-1" points="31.52 33.95 33.75 36.21 32.89 37.08 30.64 34.84 28.41 37.04 27.57 36.22 29.75 33.97 27.51 31.69 28.35 30.84 30.62 33.07 32.93 30.8 33.79 31.66 31.52 33.95"/>
    </g>
  </g>
</svg>