<?xml version="1.0" encoding="UTF-8"?>
<svg id="Camada_1" data-name="Camada 1" xmlns="http://www.w3.org/2000/svg" viewBox="0 0 50 50">
  <defs>
    <style>
      .cls-1 {
        fill: #9d9d9d;
      }
    </style>
  </defs>
  <g id="_4jGjxP" data-name="4jGjxP">
    <path class="cls-1" d="M45.72,14.73c-3.78-4.41-10.68-2.1-14.17-.02l-.09.04-7.74-1.55c-.54.29-1.15.56-1.74.83-.93.42-1.88.84-2.59,1.35-.46.32-.39.62-.28.84.16.32,1.68,1.09,2.5,1.51,1.27.64,1.43.73,1.43.98v.16l-7.72,3.86-.97.31-.11-.06c-.71-.4-1.41-.83-2.11-1.25-.87-.54-1.79-1.09-2.69-1.59-.13-.06-.25-.14-.38-.22-.44-.27-.86-.53-1.27-.4-.34.11-3.77,1.88-4.03,2.09-.43.38-.25.79-.02,1.07.61.73,1.54,1.47,2.44,2.19.81.66,1.65,1.32,2.27,2l.06.11c1.01,3.61,3.4,3.61,6.92,3.19,2.84-.33,5.61-1.07,8.21-1.79l.56-.15-2.85,6.16c-.09.23-.03.57.13.71.24.23.48.19.9.06.95-.3,2-.91,3.04-1.5.84-.47,1.7-.97,2.51-1.3l3.97-7.16.08-.04c.75-.41,1.54-.82,2.34-1.24,4-2.1,8.14-4.26,11.41-7.02.51-.42.72-.7.74-.93.02-.29-.29-.68-.76-1.24ZM21.51,16.28c-.06-.08-.1-.16-.09-.26,0-.13.06-.25.17-.34.12-.11,2.13-1.16,2.37-1.18h.09s5.49,1.18,5.49,1.18l-4.69,2.3-3.34-1.7ZM7.17,23.76h-.06c-.3,0-.56-.28-.83-.57-.16-.17-.41-.44-.53-.45l-.32-.03.19-.65,2.44-1.16,2.22,1.14-3.11,1.72ZM27.16,31.27l-3.78,1.86,4.12-9.04.06-.04c.86-.57,1.83-1.02,2.77-1.45.42-.18.83-.38,1.24-.58l.76-.38-5.18,9.63ZM44.69,16.07c-1.79,1.27-3.52,2.48-5.32,3.58l-.69.43c-1.44.91-3.64,2.29-4.73,2.64-.13.04-.31.04-.42-.08l-.12-.12.04-.19.15-.27c.37-.61,1.11-1.87.83-2.29-.11-.16-.44-.22-.94-.15l-6.9,3.41c-.31.43-.55,1.07-.79,1.67-.24.61-.45,1.19-.75,1.63-.22.31-1.07.64-3.14,1.19l-.22.05c-2.8.76-5.24,1.23-7.46,1.42l-.25.02c-.4.03-.8.08-1.21.08-1.05,0-2.08-.26-2.66-1.5-.1-.22-.16-.45-.22-.69-.05-.23-.1-.44-.18-.58-.09-.14-.56-.55-.85-.8-.52-.43-.61-.51-.61-.68v-.16s3.28-1.78,3.28-1.78l.11.04c.42.16.83.43,1.22.69.67.44,1.29.85,1.96.74l20.67-10.18c1.74-.53,3.55-.95,5.27-.61l.67.13-3.51,2.2c-.26.36-.06.65,0,.73.15.19.46.36.84.17l4.33-2.47h.02c.39,0,1.45.97,1.54,1.1.27.3.13.52.02.61Z"/>
  </g>
  <path class="cls-1" d="M37.87,25.22c-3.47,0-6.28,2.82-6.28,6.28s2.82,6.28,6.28,6.28,6.28-2.82,6.28-6.28-2.82-6.28-6.28-6.28ZM37.87,36.79c-2.92,0-5.3-2.37-5.3-5.29s2.37-5.29,5.3-5.29,5.29,2.37,5.29,5.29-2.37,5.29-5.29,5.29Z"/>
  <polygon class="cls-1" points="38.59 31.5 40.41 33.34 39.7 34.04 37.88 32.23 36.07 34.02 35.39 33.35 37.16 31.52 35.34 29.68 36.02 28.98 37.87 30.79 39.74 28.96 40.43 29.65 38.59 31.5"/>
</svg>