<?xml version="1.0" encoding="UTF-8"?>
<svg id="Camada_1" data-name="Camada 1" xmlns="http://www.w3.org/2000/svg" viewBox="0 0 50 50">
  <defs>
    <style>
      .cls-1 {
        fill: #9d9d9d;
      }
    </style>
  </defs>
  <g id="t4u6WF">
    <g>
      <path class="cls-1" d="M16.01,22.22l9.38,1.22c1.35.26,2.3,1.39,2.42,2.75s.11,3.79,0,5.17c-.15,1.98-1.5,3.52-3.38,4.04-1.55,4.33-7.59,4.35-9.3.13-3.37.11-6.77.1-10.15.04l-.38-.36-.04-20.75c.12-.29.36-.46.68-.5,2.92.36,7.15-1.21,8.69,2.17l2.07,6.09ZM11.09,15.37h-5.13v1.77c1.23.05,2.51-.06,3.73,0,.27.01.78.04,1.03.08.29.05.43.33.54.57.88,1.85,1.33,4.19,2.2,6.07.19.27-.17.96-.45.96h-7.05v9.38h8.86v-1.07c0-.22.22-.92.31-1.16,1.34-3.6,6.14-4.34,8.55-1.35.67.83,1.14,2.09,1.04,3.14.86-.23,1.59-1.34,1.69-2.19.2-1.71-.12-3.77,0-5.51-.14-.57-.49-1.05-1.07-1.22l-10.16-1.36-.35-.39-2.25-6.62c-.27-.46-.95-1.03-1.48-1.11ZM9.98,18.54h-4.03v4.95l5.83-.07-1.81-4.87ZM23.37,33.72c0-1.98-1.61-3.59-3.59-3.59s-3.59,1.61-3.59,3.59,1.61,3.59,3.59,3.59,3.59-1.61,3.59-3.59Z"/>
      <path class="cls-1" d="M37.05,35.75v1.74c0,.43-.75,1.19-1.16,1.35-.62.24-2.55.24-3.2.05-.76-.23-1.26-.92-1.33-1.69-.16-1.7.19-3.71,0-5.39-.06-.53-.35-1.18-.43-1.78-.3-2.23.06-4.61,1.39-6.45-1.94-.09-2.83-2.73-1.1-3.8.87-.54,1.75-.28,2.72-.35l1.4-4.84c.21-.58.82-.91,1.4-1.04l8.03-.02c.25.03.59.19.67.44v21.35c-.04.17-.37.44-.52.44h-7.87ZM44.06,14.92h-7.27s-.2.22-.22.3l-1.55,5.31c-.53.79-3.59-.37-3.33,1.04.06.3.46.66.75.66h11.63v-7.31ZM44.06,23.56h-9.79c-.26,0-1.11,1.21-1.26,1.48-.85,1.54-.98,3.77-.59,5.47.32,1.41,1.14,2.65,1.92,3.84h9.71v-3.91l-2.96-.03c-.68-.21-.36-1.3.04-1.3h2.92v-1.85h-3.8c-.42,0-.73-.99-.17-1.28.34-.17.53-.05.83-.05,1.05,0,2.1,0,3.14,0v-2.36ZM32.76,34.49v2.77s.14.22.19.25c.2.12,1.81.12,2.14.09.16-.01.38-.04.48-.18.08-.11.11-1.27.11-1.52,0-.09,0-.1-.08-.15h-1.85c-.07,0-.34-.26-.41-.33l-.59-.92Z"/>
      <path class="cls-1" d="M25.45,15.96l-1.25-4.18c-.15-.61.58-1,1.07-.69l5.02,4.58c.19.07.1-.42.11-.55.09-.92.22-1.84.35-2.75.22-.42.78-.55,1.13-.2l2.18,4.32c.16.4-.26.89-.67.89-.79,0-1.13-1.72-1.59-2.22-.13.54-.07,2.29-.5,2.59-.15.11-.48.18-.65.08l-4.32-3.85.74,2.62c.08.22-.34.77-.48.77h-1.07l2.34,1.8c.23.29.3.56.09.89-.3.45-2.29.85-2.87,1.08.36.44,1.52.34,1.62,1,.09.55-.29.92-.84.84-.97-.14-2.31-.97-3.32-1.19-.46-.28-.47-.89-.05-1.21l3.39-1.15-3.11-2.4c-.26-.34.08-1.07.48-1.07h2.18Z"/>
      <path class="cls-1" d="M38.78,28.16c0,1.53-1.24,2.78-2.78,2.78s-2.78-1.24-2.78-2.78,1.24-2.78,2.78-2.78,2.78,1.24,2.78,2.78ZM37.4,28.16c0-.77-.62-1.39-1.39-1.39s-1.39.62-1.39,1.39.62,1.39,1.39,1.39,1.39-.62,1.39-1.39Z"/>
    </g>
  </g>
</svg>