<?xml version="1.0" encoding="UTF-8"?>
<svg id="Camada_1" data-name="Camada 1" xmlns="http://www.w3.org/2000/svg" viewBox="0 0 50 50">
  <defs>
    <style>
      .cls-1 {
        fill: #9d9d9d;
      }
    </style>
  </defs>
  <g id="bEw5gq">
    <g>
      <path class="cls-1" d="M34.63,14.09h2.29c1.06-.92,2.02-2.21,3.09-3.09,2.86-2.34,6.43,1.19,4.21,4.05-.49.63-1.27,1.19-1.8,1.81,0,.09,1.28,1.01,1.37,1.04.33.11.77,0,1.12.04v6.42h-1.24c-.33,0-2.36.85-2.93,1-1.59.41-3.03.39-4.55-.27-.23-.1-1.2-.72-1.27-.72-.07,0-.18.16-.24.22l-.04,12.23c-.18,1.59-1.4,2.81-3,2.93h-14.19s-.77,1.96-.77,1.96v3.17H7.67v-3.17c0-.19-1.16-2.9-1.32-3.57-.46-1.9-1.36-6.57-1.25-8.39.18-2.93,2.01-4.47,3.85-6.42v-15.24c.14-1.62,1.38-2.88,3.01-3.01h19.74c1.26,0,2.93,1.52,2.93,2.77v6.22ZM32.06,11.24v3.89l1.27-.73v-6.36c-.16-.88-.88-1.58-1.79-1.65H12.04c-.95.08-1.73.86-1.81,1.81l.05,26.12c.64.76.97.09,1.26-.51s.46-1.2.71-1.78c-.31-.37-.75-.59-.73-1.2V11.48c.02-.68.56-1.22,1.24-1.24l18.4.06c.38.09.83.57.9.95ZM30.78,11.52H12.81v18.37l.5-1.71c.58-1.26,2.09-1.64,3.22-.85s.88,2.23,1.02,3.44h13.24v-2.49c-1.4.29-3.45,2.04-4.69.64-.55-.62-.5-1.21-.26-1.95.21-.66.87-2.44,1.19-2.98.19-.31,1.4-1.32,1.43-1.47-.58-.67-.97-1.29-.87-2.23.16-1.5,2.3-2.81,3.2-3.94v-4.85ZM34.47,18.42c1,.36,1.76,1.16,2.57,1.81h.16s6.13-6.15,6.13-6.15c1.02-1.48-.79-3.29-2.28-2.28l-6.58,6.61ZM35.59,15.37c-1.03-.08-1.93.11-2.73.76-1.32,1.07-2.5,2.69-3.81,3.82-.39.32-.13,1.61.32,1.6.09,0,.76-.63.81-.73s-.07-.83.04-1.24c.36-1.33,1.63-1.74,2.88-1.69l2.49-2.52ZM38.8,20.51h1.6v1.28h-3.41c-1.34-.9-2.53-2.46-4.25-2.57-1.13-.07-1.78.89-.96,1.76,1.49.82,2.95,1.93,4.45,2.69,2.78,1.42,4.7.21,7.39-.65v-3.79c-.8-.27-1.42-1-2.13-1.44l-2.69,2.71ZM33.75,23.64l-2.84-1.68-2.37,2.43,2.27,2.21,2.94-2.96ZM8.96,34.43v-9.11c-1.98,1.61-2.78,3.4-2.47,5.96.24,2.01.66,4.69,1.13,6.65.26,1.08.74,2.07,1.11,3.1h6.88c.76-1.74,1.13-3.5,1.05-5.4s-.25-4.39-.49-6.33c-.13-1.09-1.21-1.59-1.69-.59-.4.84-.64,2.63-.99,3.66-.24.69-.92,2.55-1.4,3.01-1.03,1-2.91.43-3.13-.97ZM29.58,27.41c.03-.12-.03-.13-.08-.2-.14-.2-1.36-1.42-1.56-1.56-.07-.05-.08-.11-.2-.08.03.51-1.51,2.77-.29,2.65.55-.05,1.5-.76,2.13-.8ZM17.78,38.48h14c.52,0,1.56-1.04,1.56-1.56v-10.95l-1.27,1.26c-.15,1.18.16,2.68-.04,3.82-.06.39-.6,1.02-.98,1.02h-13.44c.2,2.13.49,4.28.16,6.42ZM15.38,42.33h-6.42v1.28h6.42v-1.28Z"/>
      <rect class="cls-1" x="17.94" y="17.94" width="8.34" height="1.28"/>
      <rect class="cls-1" x="17.94" y="23.08" width="8.34" height="1.28"/>
      <rect class="cls-1" x="17.94" y="25.64" width="7.06" height="1.28"/>
      <rect class="cls-1" x="17.94" y="28.21" width="7.06" height="1.28"/>
      <rect class="cls-1" x="17.94" y="20.51" width="5.78" height="1.28"/>
      <rect class="cls-1" x="25" y="20.51" width="1.28" height="1.28"/>
      <rect class="cls-1" x="19.23" y="7.67" width="5.13" height="1.28"/>
      <circle class="cls-1" cx="28.85" cy="8.31" r=".65"/>
      <circle class="cls-1" cx="31.42" cy="8.31" r=".65"/>
      <path class="cls-1" d="M18.96,33.36l5.72.02c1.9.76.7,3.26-.87,3.71-.65.19-3.47.19-4.11-.02-1.56-.49-2.71-3.03-.74-3.71ZM24.36,34.63h-5.13c-.03.53.38,1.09.9,1.23.46.12,2.89.12,3.34,0,.51-.13.92-.69.9-1.23Z"/>
    </g>
  </g>
</svg>